<?xml version="1.0" encoding="UTF-8"?>
<svg xmlns="http://www.w3.org/2000/svg" width="477" height="113">
   <defs>
      <style type="text/css">
    @namespace "http://www.w3.org/2000/svg";
    .line                 {fill: none; stroke: #332900; stroke-width: 1;}
    .bold-line            {stroke: #141000; shape-rendering: crispEdges; stroke-width: 2;}
    .thin-line            {stroke: #1F1800; shape-rendering: crispEdges}
    .filled               {fill: #332900; stroke: none;}
    text.terminal         {font-family: Verdana, Sans-serif;
                            font-size: 12px;
                            fill: #141000;
                            font-weight: bold;
                          }
    text.nonterminal      {font-family: Verdana, Sans-serif;
                            font-size: 12px;
                            fill: #1A1400;
                            font-weight: normal;
                          }
    text.regexp           {font-family: Verdana, Sans-serif;
                            font-size: 12px;
                            fill: #1F1800;
                            font-weight: normal;
                          }
    rect, circle, polygon {fill: #332900; stroke: #332900;}
    rect.terminal         {fill: #FFDB4D; stroke: #332900; stroke-width: 1;}
    rect.nonterminal      {fill: #FFEC9E; stroke: #332900; stroke-width: 1;}
    rect.text             {fill: none; stroke: none;}
    polygon.regexp        {fill: #FFF4C7; stroke: #332900; stroke-width: 1;}
  </style>
   </defs>
   <polygon points="9 33 1 29 1 37"/>
   <polygon points="17 33 9 29 9 37"/>
   <a xmlns:xlink="http://www.w3.org/1999/xlink"
       xlink:href="#primary"
       xlink:title="primary">
      <rect x="31" y="19" width="68" height="32"/>
      <rect x="29" y="17" width="68" height="32" class="nonterminal"/>
      <text class="nonterminal" x="39" y="37">primary</text>
   </a>
   <rect x="179" y="19" width="26" height="32" rx="10"/>
   <rect x="177"
          y="17"
          width="26"
          height="32"
          class="terminal"
          rx="10"/>
   <text class="terminal" x="187" y="37">(</text>
   <a xmlns:xlink="http://www.w3.org/1999/xlink"
       xlink:href="#opt_arguments"
       xlink:title="opt_arguments">
      <rect x="225" y="19" width="118" height="32"/>
      <rect x="223" y="17" width="118" height="32" class="nonterminal"/>
      <text class="nonterminal" x="233" y="37">opt_arguments</text>
   </a>
   <rect x="363" y="19" width="26" height="32" rx="10"/>
   <rect x="361"
          y="17"
          width="26"
          height="32"
          class="terminal"
          rx="10"/>
   <text class="terminal" x="371" y="37">)</text>
   <rect x="179" y="63" width="24" height="32" rx="10"/>
   <rect x="177"
          y="61"
          width="24"
          height="32"
          class="terminal"
          rx="10"/>
   <text class="terminal" x="187" y="81">.</text>
   <a xmlns:xlink="http://www.w3.org/1999/xlink"
       xlink:href="#IDENTIFIER"
       xlink:title="IDENTIFIER">
      <rect x="223" y="63" width="92" height="32"/>
      <rect x="221" y="61" width="92" height="32" class="nonterminal"/>
      <text class="nonterminal" x="231" y="81">IDENTIFIER</text>
   </a>
   <path class="line"
          d="m17 33 h2 m0 0 h10 m68 0 h10 m60 0 h10 m26 0 h10 m0 0 h10 m118 0 h10 m0 0 h10 m26 0 h10 m-250 0 h20 m230 0 h20 m-270 0 q10 0 10 10 m250 0 q0 -10 10 -10 m-260 10 v24 m250 0 v-24 m-250 24 q0 10 10 10 m230 0 q10 0 10 -10 m-240 10 h10 m24 0 h10 m0 0 h10 m92 0 h10 m0 0 h74 m-270 -44 l20 0 m-1 0 q-9 0 -9 -10 l0 -12 q0 -10 10 -10 m270 32 l20 0 m-20 0 q10 0 10 -10 l0 -12 q0 -10 -10 -10 m-270 0 h10 m0 0 h260 m-310 32 h20 m310 0 h20 m-350 0 q10 0 10 10 m330 0 q0 -10 10 -10 m-340 10 v58 m330 0 v-58 m-330 58 q0 10 10 10 m310 0 q10 0 10 -10 m-320 10 h10 m0 0 h300 m23 -78 h-3"/>
   <polygon points="467 33 475 29 475 37"/>
   <polygon points="467 33 459 29 459 37"/>
</svg>
