<?xml version="1.0" encoding="UTF-8"?>
<svg xmlns="http://www.w3.org/2000/svg" width="597" height="71">
   <defs>
      <style type="text/css">
    @namespace "http://www.w3.org/2000/svg";
    .line                 {fill: none; stroke: #332900; stroke-width: 1;}
    .bold-line            {stroke: #141000; shape-rendering: crispEdges; stroke-width: 2;}
    .thin-line            {stroke: #1F1800; shape-rendering: crispEdges}
    .filled               {fill: #332900; stroke: none;}
    text.terminal         {font-family: Verdana, Sans-serif;
                            font-size: 12px;
                            fill: #141000;
                            font-weight: bold;
                          }
    text.nonterminal      {font-family: Verdana, Sans-serif;
                            font-size: 12px;
                            fill: #1A1400;
                            font-weight: normal;
                          }
    text.regexp           {font-family: Verdana, Sans-serif;
                            font-size: 12px;
                            fill: #1F1800;
                            font-weight: normal;
                          }
    rect, circle, polygon {fill: #332900; stroke: #332900;}
    rect.terminal         {fill: #FFDB4D; stroke: #332900; stroke-width: 1;}
    rect.nonterminal      {fill: #FFEC9E; stroke: #332900; stroke-width: 1;}
    rect.text             {fill: none; stroke: none;}
    polygon.regexp        {fill: #FFF4C7; stroke: #332900; stroke-width: 1;}
  </style>
   </defs>
   <polygon points="9 51 1 47 1 55"/>
   <polygon points="17 51 9 47 9 55"/>
   <a xmlns:xlink="http://www.w3.org/1999/xlink"
       xlink:href="#CLASS"
       xlink:title="CLASS">
      <rect x="31" y="37" width="60" height="32"/>
      <rect x="29" y="35" width="60" height="32" class="nonterminal"/>
      <text class="nonterminal" x="39" y="55">CLASS</text>
   </a>
   <a xmlns:xlink="http://www.w3.org/1999/xlink"
       xlink:href="#IDENTIFIER"
       xlink:title="IDENTIFIER">
      <rect x="111" y="37" width="92" height="32"/>
      <rect x="109" y="35" width="92" height="32" class="nonterminal"/>
      <text class="nonterminal" x="119" y="55">IDENTIFIER</text>
   </a>
   <a xmlns:xlink="http://www.w3.org/1999/xlink"
       xlink:href="#opt_inheritance"
       xlink:title="opt_inheritance">
      <rect x="223" y="37" width="120" height="32"/>
      <rect x="221" y="35" width="120" height="32" class="nonterminal"/>
      <text class="nonterminal" x="231" y="55">opt_inheritance</text>
   </a>
   <rect x="363" y="37" width="28" height="32" rx="10"/>
   <rect x="361"
          y="35"
          width="28"
          height="32"
          class="terminal"
          rx="10"/>
   <text class="terminal" x="371" y="55">{</text>
   <a xmlns:xlink="http://www.w3.org/1999/xlink"
       xlink:href="#function"
       xlink:title="function">
      <rect x="431" y="3" width="70" height="32"/>
      <rect x="429" y="1" width="70" height="32" class="nonterminal"/>
      <text class="nonterminal" x="439" y="21">function</text>
   </a>
   <rect x="541" y="37" width="28" height="32" rx="10"/>
   <rect x="539"
          y="35"
          width="28"
          height="32"
          class="terminal"
          rx="10"/>
   <text class="terminal" x="549" y="55">}</text>
   <path class="line"
          d="m17 51 h2 m0 0 h10 m60 0 h10 m0 0 h10 m92 0 h10 m0 0 h10 m120 0 h10 m0 0 h10 m28 0 h10 m20 0 h10 m0 0 h80 m-110 0 l20 0 m-1 0 q-9 0 -9 -10 l0 -14 q0 -10 10 -10 m90 34 l20 0 m-20 0 q10 0 10 -10 l0 -14 q0 -10 -10 -10 m-90 0 h10 m70 0 h10 m20 34 h10 m28 0 h10 m3 0 h-3"/>
   <polygon points="587 51 595 47 595 55"/>
   <polygon points="587 51 579 47 579 55"/>
</svg>
