<?xml version="1.0" encoding="UTF-8"?>
<svg xmlns="http://www.w3.org/2000/svg" width="603" height="129">
   <defs>
      <style type="text/css">
    @namespace "http://www.w3.org/2000/svg";
    .line                 {fill: none; stroke: #332900; stroke-width: 1;}
    .bold-line            {stroke: #141000; shape-rendering: crispEdges; stroke-width: 2;}
    .thin-line            {stroke: #1F1800; shape-rendering: crispEdges}
    .filled               {fill: #332900; stroke: none;}
    text.terminal         {font-family: Verdana, Sans-serif;
                            font-size: 12px;
                            fill: #141000;
                            font-weight: bold;
                          }
    text.nonterminal      {font-family: Verdana, Sans-serif;
                            font-size: 12px;
                            fill: #1A1400;
                            font-weight: normal;
                          }
    text.regexp           {font-family: Verdana, Sans-serif;
                            font-size: 12px;
                            fill: #1F1800;
                            font-weight: normal;
                          }
    rect, circle, polygon {fill: #332900; stroke: #332900;}
    rect.terminal         {fill: #FFDB4D; stroke: #332900; stroke-width: 1;}
    rect.nonterminal      {fill: #FFEC9E; stroke: #332900; stroke-width: 1;}
    rect.text             {fill: none; stroke: none;}
    polygon.regexp        {fill: #FFF4C7; stroke: #332900; stroke-width: 1;}
  </style>
   </defs>
   <polygon points="9 61 1 57 1 65"/>
   <polygon points="17 61 9 57 9 65"/>
   <a xmlns:xlink="http://www.w3.org/1999/xlink"
       xlink:href="#call"
       xlink:title="call">
      <rect x="91" y="79" width="40" height="32"/>
      <rect x="89" y="77" width="40" height="32" class="nonterminal"/>
      <text class="nonterminal" x="99" y="97">call</text>
   </a>
   <rect x="151" y="79" width="24" height="32" rx="10"/>
   <rect x="149"
          y="77"
          width="24"
          height="32"
          class="terminal"
          rx="10"/>
   <text class="terminal" x="159" y="97">.</text>
   <a xmlns:xlink="http://www.w3.org/1999/xlink"
       xlink:href="#IDENTIFIER"
       xlink:title="IDENTIFIER">
      <rect x="215" y="47" width="92" height="32"/>
      <rect x="213" y="45" width="92" height="32" class="nonterminal"/>
      <text class="nonterminal" x="223" y="65">IDENTIFIER</text>
   </a>
   <a xmlns:xlink="http://www.w3.org/1999/xlink"
       xlink:href="#ASSIGN"
       xlink:title="ASSIGN">
      <rect x="327" y="47" width="68" height="32"/>
      <rect x="325" y="45" width="68" height="32" class="nonterminal"/>
      <text class="nonterminal" x="335" y="65">ASSIGN</text>
   </a>
   <a xmlns:xlink="http://www.w3.org/1999/xlink"
       xlink:href="#logic_and"
       xlink:title="logic_and">
      <rect x="475" y="47" width="80" height="32"/>
      <rect x="473" y="45" width="80" height="32" class="nonterminal"/>
      <text class="nonterminal" x="483" y="65">logic_and</text>
   </a>
   <a xmlns:xlink="http://www.w3.org/1999/xlink"
       xlink:href="#OR"
       xlink:title="OR">
      <rect x="475" y="3" width="38" height="32"/>
      <rect x="473" y="1" width="38" height="32" class="nonterminal"/>
      <text class="nonterminal" x="483" y="21">OR</text>
   </a>
   <path class="line"
          d="m17 61 h2 m60 0 h10 m0 0 h94 m-124 0 h20 m104 0 h20 m-144 0 q10 0 10 10 m124 0 q0 -10 10 -10 m-134 10 v12 m124 0 v-12 m-124 12 q0 10 10 10 m104 0 q10 0 10 -10 m-114 10 h10 m40 0 h10 m0 0 h10 m24 0 h10 m20 -32 h10 m92 0 h10 m0 0 h10 m68 0 h10 m-364 0 l20 0 m-1 0 q-9 0 -9 -10 l0 -12 q0 -10 10 -10 m344 32 l20 0 m-20 0 q10 0 10 -10 l0 -12 q0 -10 -10 -10 m-344 0 h10 m0 0 h334 m-384 32 h20 m384 0 h20 m-424 0 q10 0 10 10 m404 0 q0 -10 10 -10 m-414 10 v46 m404 0 v-46 m-404 46 q0 10 10 10 m384 0 q10 0 10 -10 m-394 10 h10 m0 0 h374 m40 -66 h10 m80 0 h10 m-120 0 l20 0 m-1 0 q-9 0 -9 -10 l0 -24 q0 -10 10 -10 m100 44 l20 0 m-20 0 q10 0 10 -10 l0 -24 q0 -10 -10 -10 m-100 0 h10 m38 0 h10 m0 0 h42 m23 44 h-3"/>
   <polygon points="593 61 601 57 601 65"/>
   <polygon points="593 61 585 57 585 65"/>
</svg>
