<?xml version="1.0" encoding="UTF-8"?>
<svg xmlns="http://www.w3.org/2000/svg" width="571" height="97">
   <defs>
      <style type="text/css">
    @namespace "http://www.w3.org/2000/svg";
    .line                 {fill: none; stroke: #332900; stroke-width: 1;}
    .bold-line            {stroke: #141000; shape-rendering: crispEdges; stroke-width: 2;}
    .thin-line            {stroke: #1F1800; shape-rendering: crispEdges}
    .filled               {fill: #332900; stroke: none;}
    text.terminal         {font-family: Verdana, Sans-serif;
                            font-size: 12px;
                            fill: #141000;
                            font-weight: bold;
                          }
    text.nonterminal      {font-family: Verdana, Sans-serif;
                            font-size: 12px;
                            fill: #1A1400;
                            font-weight: normal;
                          }
    text.regexp           {font-family: Verdana, Sans-serif;
                            font-size: 12px;
                            fill: #1F1800;
                            font-weight: normal;
                          }
    rect, circle, polygon {fill: #332900; stroke: #332900;}
    rect.terminal         {fill: #FFDB4D; stroke: #332900; stroke-width: 1;}
    rect.nonterminal      {fill: #FFEC9E; stroke: #332900; stroke-width: 1;}
    rect.text             {fill: none; stroke: none;}
    polygon.regexp        {fill: #FFF4C7; stroke: #332900; stroke-width: 1;}
  </style>
   </defs>
   <polygon points="9 61 1 57 1 65"/>
   <polygon points="17 61 9 57 9 65"/>
   <a xmlns:xlink="http://www.w3.org/1999/xlink"
       xlink:href="#opt_callDot"
       xlink:title="opt_callDot">
      <rect x="71" y="47" width="92" height="32"/>
      <rect x="69" y="45" width="92" height="32" class="nonterminal"/>
      <text class="nonterminal" x="79" y="65">opt_callDot</text>
   </a>
   <a xmlns:xlink="http://www.w3.org/1999/xlink"
       xlink:href="#IDENTIFIER"
       xlink:title="IDENTIFIER">
      <rect x="183" y="47" width="92" height="32"/>
      <rect x="181" y="45" width="92" height="32" class="nonterminal"/>
      <text class="nonterminal" x="191" y="65">IDENTIFIER</text>
   </a>
   <a xmlns:xlink="http://www.w3.org/1999/xlink"
       xlink:href="#ASSIGN"
       xlink:title="ASSIGN">
      <rect x="295" y="47" width="68" height="32"/>
      <rect x="293" y="45" width="68" height="32" class="nonterminal"/>
      <text class="nonterminal" x="303" y="65">ASSIGN</text>
   </a>
   <a xmlns:xlink="http://www.w3.org/1999/xlink"
       xlink:href="#logic_and"
       xlink:title="logic_and">
      <rect x="443" y="47" width="80" height="32"/>
      <rect x="441" y="45" width="80" height="32" class="nonterminal"/>
      <text class="nonterminal" x="451" y="65">logic_and</text>
   </a>
   <a xmlns:xlink="http://www.w3.org/1999/xlink"
       xlink:href="#OR"
       xlink:title="OR">
      <rect x="443" y="3" width="38" height="32"/>
      <rect x="441" y="1" width="38" height="32" class="nonterminal"/>
      <text class="nonterminal" x="451" y="21">OR</text>
   </a>
   <path class="line"
          d="m17 61 h2 m40 0 h10 m92 0 h10 m0 0 h10 m92 0 h10 m0 0 h10 m68 0 h10 m-332 0 l20 0 m-1 0 q-9 0 -9 -10 l0 -12 q0 -10 10 -10 m312 32 l20 0 m-20 0 q10 0 10 -10 l0 -12 q0 -10 -10 -10 m-312 0 h10 m0 0 h302 m-352 32 h20 m352 0 h20 m-392 0 q10 0 10 10 m372 0 q0 -10 10 -10 m-382 10 v14 m372 0 v-14 m-372 14 q0 10 10 10 m352 0 q10 0 10 -10 m-362 10 h10 m0 0 h342 m40 -34 h10 m80 0 h10 m-120 0 l20 0 m-1 0 q-9 0 -9 -10 l0 -24 q0 -10 10 -10 m100 44 l20 0 m-20 0 q10 0 10 -10 l0 -24 q0 -10 -10 -10 m-100 0 h10 m38 0 h10 m0 0 h42 m23 44 h-3"/>
   <polygon points="561 61 569 57 569 65"/>
   <polygon points="561 61 553 57 553 65"/>
</svg>
