<?xml version="1.0" encoding="UTF-8"?>
<svg xmlns="http://www.w3.org/2000/svg" width="155" height="125">
   <defs>
      <style type="text/css">
    @namespace "http://www.w3.org/2000/svg";
    .line                 {fill: none; stroke: #332900; stroke-width: 1;}
    .bold-line            {stroke: #141000; shape-rendering: crispEdges; stroke-width: 2;}
    .thin-line            {stroke: #1F1800; shape-rendering: crispEdges}
    .filled               {fill: #332900; stroke: none;}
    text.terminal         {font-family: Verdana, Sans-serif;
                            font-size: 12px;
                            fill: #141000;
                            font-weight: bold;
                          }
    text.nonterminal      {font-family: Verdana, Sans-serif;
                            font-size: 12px;
                            fill: #1A1400;
                            font-weight: normal;
                          }
    text.regexp           {font-family: Verdana, Sans-serif;
                            font-size: 12px;
                            fill: #1F1800;
                            font-weight: normal;
                          }
    rect, circle, polygon {fill: #332900; stroke: #332900;}
    rect.terminal         {fill: #FFDB4D; stroke: #332900; stroke-width: 1;}
    rect.nonterminal      {fill: #FFEC9E; stroke: #332900; stroke-width: 1;}
    rect.text             {fill: none; stroke: none;}
    polygon.regexp        {fill: #FFF4C7; stroke: #332900; stroke-width: 1;}
  </style>
   </defs>
   <polygon points="9 105 1 101 1 109"/>
   <polygon points="17 105 9 101 9 109"/>
   <a xmlns:xlink="http://www.w3.org/1999/xlink"
       xlink:href="#unary"
       xlink:title="unary">
      <rect x="51" y="91" width="56" height="32"/>
      <rect x="49" y="89" width="56" height="32" class="nonterminal"/>
      <text class="nonterminal" x="59" y="109">unary</text>
   </a>
   <a xmlns:xlink="http://www.w3.org/1999/xlink"
       xlink:href="#MUL"
       xlink:title="MUL">
      <rect x="51" y="47" width="46" height="32"/>
      <rect x="49" y="45" width="46" height="32" class="nonterminal"/>
      <text class="nonterminal" x="59" y="65">MUL</text>
   </a>
   <a xmlns:xlink="http://www.w3.org/1999/xlink"
       xlink:href="#DIV"
       xlink:title="DIV">
      <rect x="51" y="3" width="42" height="32"/>
      <rect x="49" y="1" width="42" height="32" class="nonterminal"/>
      <text class="nonterminal" x="59" y="21">DIV</text>
   </a>
   <path class="line"
          d="m17 105 h2 m20 0 h10 m56 0 h10 m-96 0 l20 0 m-1 0 q-9 0 -9 -10 l0 -24 q0 -10 10 -10 m76 44 l20 0 m-20 0 q10 0 10 -10 l0 -24 q0 -10 -10 -10 m-76 0 h10 m46 0 h10 m0 0 h10 m-86 10 l0 -44 q0 -10 10 -10 m86 54 l0 -44 q0 -10 -10 -10 m-76 0 h10 m42 0 h10 m0 0 h14 m23 88 h-3"/>
   <polygon points="145 105 153 101 153 109"/>
   <polygon points="145 105 137 101 137 109"/>
</svg>
