<?xml version="1.0" encoding="UTF-8"?>
<svg xmlns="http://www.w3.org/2000/svg" width="827" height="37">
   <defs>
      <style type="text/css">
    @namespace "http://www.w3.org/2000/svg";
    .line                 {fill: none; stroke: #332900; stroke-width: 1;}
    .bold-line            {stroke: #141000; shape-rendering: crispEdges; stroke-width: 2;}
    .thin-line            {stroke: #1F1800; shape-rendering: crispEdges}
    .filled               {fill: #332900; stroke: none;}
    text.terminal         {font-family: Verdana, Sans-serif;
                            font-size: 12px;
                            fill: #141000;
                            font-weight: bold;
                          }
    text.nonterminal      {font-family: Verdana, Sans-serif;
                            font-size: 12px;
                            fill: #1A1400;
                            font-weight: normal;
                          }
    text.regexp           {font-family: Verdana, Sans-serif;
                            font-size: 12px;
                            fill: #1F1800;
                            font-weight: normal;
                          }
    rect, circle, polygon {fill: #332900; stroke: #332900;}
    rect.terminal         {fill: #FFDB4D; stroke: #332900; stroke-width: 1;}
    rect.nonterminal      {fill: #FFEC9E; stroke: #332900; stroke-width: 1;}
    rect.text             {fill: none; stroke: none;}
    polygon.regexp        {fill: #FFF4C7; stroke: #332900; stroke-width: 1;}
  </style>
   </defs>
   <polygon points="9 17 1 13 1 21"/>
   <polygon points="17 17 9 13 9 21"/>
   <a xmlns:xlink="http://www.w3.org/1999/xlink"
       xlink:href="#FOR"
       xlink:title="FOR">
      <rect x="31" y="3" width="44" height="32"/>
      <rect x="29" y="1" width="44" height="32" class="nonterminal"/>
      <text class="nonterminal" x="39" y="21">FOR</text>
   </a>
   <rect x="95" y="3" width="26" height="32" rx="10"/>
   <rect x="93"
          y="1"
          width="26"
          height="32"
          class="terminal"
          rx="10"/>
   <text class="terminal" x="103" y="21">(</text>
   <a xmlns:xlink="http://www.w3.org/1999/xlink"
       xlink:href="#opt_varOrExprStmt"
       xlink:title="opt_varOrExprStmt">
      <rect x="141" y="3" width="142" height="32"/>
      <rect x="139" y="1" width="142" height="32" class="nonterminal"/>
      <text class="nonterminal" x="149" y="21">opt_varOrExprStmt</text>
   </a>
   <rect x="303" y="3" width="24" height="32" rx="10"/>
   <rect x="301"
          y="1"
          width="24"
          height="32"
          class="terminal"
          rx="10"/>
   <text class="terminal" x="311" y="21">;</text>
   <a xmlns:xlink="http://www.w3.org/1999/xlink"
       xlink:href="#opt_expression"
       xlink:title="opt_expression">
      <rect x="347" y="3" width="118" height="32"/>
      <rect x="345" y="1" width="118" height="32" class="nonterminal"/>
      <text class="nonterminal" x="355" y="21">opt_expression</text>
   </a>
   <rect x="485" y="3" width="24" height="32" rx="10"/>
   <rect x="483"
          y="1"
          width="24"
          height="32"
          class="terminal"
          rx="10"/>
   <text class="terminal" x="493" y="21">;</text>
   <a xmlns:xlink="http://www.w3.org/1999/xlink"
       xlink:href="#opt_expression"
       xlink:title="opt_expression">
      <rect x="529" y="3" width="118" height="32"/>
      <rect x="527" y="1" width="118" height="32" class="nonterminal"/>
      <text class="nonterminal" x="537" y="21">opt_expression</text>
   </a>
   <rect x="667" y="3" width="26" height="32" rx="10"/>
   <rect x="665"
          y="1"
          width="26"
          height="32"
          class="terminal"
          rx="10"/>
   <text class="terminal" x="675" y="21">)</text>
   <a xmlns:xlink="http://www.w3.org/1999/xlink"
       xlink:href="#statement"
       xlink:title="statement">
      <rect x="713" y="3" width="86" height="32"/>
      <rect x="711" y="1" width="86" height="32" class="nonterminal"/>
      <text class="nonterminal" x="721" y="21">statement</text>
   </a>
   <path class="line"
          d="m17 17 h2 m0 0 h10 m44 0 h10 m0 0 h10 m26 0 h10 m0 0 h10 m142 0 h10 m0 0 h10 m24 0 h10 m0 0 h10 m118 0 h10 m0 0 h10 m24 0 h10 m0 0 h10 m118 0 h10 m0 0 h10 m26 0 h10 m0 0 h10 m86 0 h10 m3 0 h-3"/>
   <polygon points="817 17 825 13 825 21"/>
   <polygon points="817 17 809 13 809 21"/>
</svg>
