<?xml version="1.0" encoding="UTF-8"?>
<svg xmlns="http://www.w3.org/2000/svg" width="169" height="81">
   <defs>
      <style type="text/css">
    @namespace "http://www.w3.org/2000/svg";
    .line                 {fill: none; stroke: #332900; stroke-width: 1;}
    .bold-line            {stroke: #141000; shape-rendering: crispEdges; stroke-width: 2;}
    .thin-line            {stroke: #1F1800; shape-rendering: crispEdges}
    .filled               {fill: #332900; stroke: none;}
    text.terminal         {font-family: Verdana, Sans-serif;
                            font-size: 12px;
                            fill: #141000;
                            font-weight: bold;
                          }
    text.nonterminal      {font-family: Verdana, Sans-serif;
                            font-size: 12px;
                            fill: #1A1400;
                            font-weight: normal;
                          }
    text.regexp           {font-family: Verdana, Sans-serif;
                            font-size: 12px;
                            fill: #1F1800;
                            font-weight: normal;
                          }
    rect, circle, polygon {fill: #332900; stroke: #332900;}
    rect.terminal         {fill: #FFDB4D; stroke: #332900; stroke-width: 1;}
    rect.nonterminal      {fill: #FFEC9E; stroke: #332900; stroke-width: 1;}
    rect.text             {fill: none; stroke: none;}
    polygon.regexp        {fill: #FFF4C7; stroke: #332900; stroke-width: 1;}
  </style>
   </defs>
   <polygon points="9 61 1 57 1 65"/>
   <polygon points="17 61 9 57 9 65"/>
   <a xmlns:xlink="http://www.w3.org/1999/xlink"
       xlink:href="#equality"
       xlink:title="equality">
      <rect x="51" y="47" width="70" height="32"/>
      <rect x="49" y="45" width="70" height="32" class="nonterminal"/>
      <text class="nonterminal" x="59" y="65">equality</text>
   </a>
   <a xmlns:xlink="http://www.w3.org/1999/xlink"
       xlink:href="#AND"
       xlink:title="AND">
      <rect x="51" y="3" width="46" height="32"/>
      <rect x="49" y="1" width="46" height="32" class="nonterminal"/>
      <text class="nonterminal" x="59" y="21">AND</text>
   </a>
   <path class="line"
          d="m17 61 h2 m20 0 h10 m70 0 h10 m-110 0 l20 0 m-1 0 q-9 0 -9 -10 l0 -24 q0 -10 10 -10 m90 44 l20 0 m-20 0 q10 0 10 -10 l0 -24 q0 -10 -10 -10 m-90 0 h10 m46 0 h10 m0 0 h24 m23 44 h-3"/>
   <polygon points="159 61 167 57 167 65"/>
   <polygon points="159 61 151 57 151 65"/>
</svg>
