<?xml version="1.0" encoding="UTF-8"?>
<svg xmlns="http://www.w3.org/2000/svg" width="355" height="377">
   <defs>
      <style type="text/css">
    @namespace "http://www.w3.org/2000/svg";
    .line                 {fill: none; stroke: #332900; stroke-width: 1;}
    .bold-line            {stroke: #141000; shape-rendering: crispEdges; stroke-width: 2;}
    .thin-line            {stroke: #1F1800; shape-rendering: crispEdges}
    .filled               {fill: #332900; stroke: none;}
    text.terminal         {font-family: Verdana, Sans-serif;
                            font-size: 12px;
                            fill: #141000;
                            font-weight: bold;
                          }
    text.nonterminal      {font-family: Verdana, Sans-serif;
                            font-size: 12px;
                            fill: #1A1400;
                            font-weight: normal;
                          }
    text.regexp           {font-family: Verdana, Sans-serif;
                            font-size: 12px;
                            fill: #1F1800;
                            font-weight: normal;
                          }
    rect, circle, polygon {fill: #332900; stroke: #332900;}
    rect.terminal         {fill: #FFDB4D; stroke: #332900; stroke-width: 1;}
    rect.nonterminal      {fill: #FFEC9E; stroke: #332900; stroke-width: 1;}
    rect.text             {fill: none; stroke: none;}
    polygon.regexp        {fill: #FFF4C7; stroke: #332900; stroke-width: 1;}
  </style>
   </defs>
   <polygon points="9 17 1 13 1 21"/>
   <polygon points="17 17 9 13 9 21"/>
   <a xmlns:xlink="http://www.w3.org/1999/xlink"
       xlink:href="#TRUE"
       xlink:title="TRUE">
      <rect x="51" y="3" width="52" height="32"/>
      <rect x="49" y="1" width="52" height="32" class="nonterminal"/>
      <text class="nonterminal" x="59" y="21">TRUE</text>
   </a>
   <a xmlns:xlink="http://www.w3.org/1999/xlink"
       xlink:href="#FALSE"
       xlink:title="FALSE">
      <rect x="51" y="47" width="58" height="32"/>
      <rect x="49" y="45" width="58" height="32" class="nonterminal"/>
      <text class="nonterminal" x="59" y="65">FALSE</text>
   </a>
   <a xmlns:xlink="http://www.w3.org/1999/xlink"
       xlink:href="#NIL"
       xlink:title="NIL">
      <rect x="51" y="91" width="40" height="32"/>
      <rect x="49" y="89" width="40" height="32" class="nonterminal"/>
      <text class="nonterminal" x="59" y="109">NIL</text>
   </a>
   <a xmlns:xlink="http://www.w3.org/1999/xlink"
       xlink:href="#THIS"
       xlink:title="THIS">
      <rect x="51" y="135" width="48" height="32"/>
      <rect x="49" y="133" width="48" height="32" class="nonterminal"/>
      <text class="nonterminal" x="59" y="153">THIS</text>
   </a>
   <a xmlns:xlink="http://www.w3.org/1999/xlink"
       xlink:href="#NUMBER"
       xlink:title="NUMBER">
      <rect x="51" y="179" width="72" height="32"/>
      <rect x="49" y="177" width="72" height="32" class="nonterminal"/>
      <text class="nonterminal" x="59" y="197">NUMBER</text>
   </a>
   <a xmlns:xlink="http://www.w3.org/1999/xlink"
       xlink:href="#STRING"
       xlink:title="STRING">
      <rect x="51" y="223" width="66" height="32"/>
      <rect x="49" y="221" width="66" height="32" class="nonterminal"/>
      <text class="nonterminal" x="59" y="241">STRING</text>
   </a>
   <a xmlns:xlink="http://www.w3.org/1999/xlink"
       xlink:href="#SUPER"
       xlink:title="SUPER">
      <rect x="71" y="299" width="60" height="32"/>
      <rect x="69" y="297" width="60" height="32" class="nonterminal"/>
      <text class="nonterminal" x="79" y="317">SUPER</text>
   </a>
   <rect x="151" y="299" width="24" height="32" rx="10"/>
   <rect x="149"
          y="297"
          width="24"
          height="32"
          class="terminal"
          rx="10"/>
   <text class="terminal" x="159" y="317">.</text>
   <a xmlns:xlink="http://www.w3.org/1999/xlink"
       xlink:href="#IDENTIFIER"
       xlink:title="IDENTIFIER">
      <rect x="215" y="267" width="92" height="32"/>
      <rect x="213" y="265" width="92" height="32" class="nonterminal"/>
      <text class="nonterminal" x="223" y="285">IDENTIFIER</text>
   </a>
   <rect x="51" y="343" width="26" height="32" rx="10"/>
   <rect x="49"
          y="341"
          width="26"
          height="32"
          class="terminal"
          rx="10"/>
   <text class="terminal" x="59" y="361">(</text>
   <a xmlns:xlink="http://www.w3.org/1999/xlink"
       xlink:href="#expression"
       xlink:title="expression">
      <rect x="97" y="343" width="90" height="32"/>
      <rect x="95" y="341" width="90" height="32" class="nonterminal"/>
      <text class="nonterminal" x="105" y="361">expression</text>
   </a>
   <rect x="207" y="343" width="26" height="32" rx="10"/>
   <rect x="205"
          y="341"
          width="26"
          height="32"
          class="terminal"
          rx="10"/>
   <text class="terminal" x="215" y="361">)</text>
   <path class="line"
          d="m17 17 h2 m20 0 h10 m52 0 h10 m0 0 h204 m-296 0 h20 m276 0 h20 m-316 0 q10 0 10 10 m296 0 q0 -10 10 -10 m-306 10 v24 m296 0 v-24 m-296 24 q0 10 10 10 m276 0 q10 0 10 -10 m-286 10 h10 m58 0 h10 m0 0 h198 m-286 -10 v20 m296 0 v-20 m-296 20 v24 m296 0 v-24 m-296 24 q0 10 10 10 m276 0 q10 0 10 -10 m-286 10 h10 m40 0 h10 m0 0 h216 m-286 -10 v20 m296 0 v-20 m-296 20 v24 m296 0 v-24 m-296 24 q0 10 10 10 m276 0 q10 0 10 -10 m-286 10 h10 m48 0 h10 m0 0 h208 m-286 -10 v20 m296 0 v-20 m-296 20 v24 m296 0 v-24 m-296 24 q0 10 10 10 m276 0 q10 0 10 -10 m-286 10 h10 m72 0 h10 m0 0 h184 m-286 -10 v20 m296 0 v-20 m-296 20 v24 m296 0 v-24 m-296 24 q0 10 10 10 m276 0 q10 0 10 -10 m-286 10 h10 m66 0 h10 m0 0 h190 m-286 -10 v20 m296 0 v-20 m-296 20 v24 m296 0 v-24 m-296 24 q0 10 10 10 m276 0 q10 0 10 -10 m-266 10 h10 m0 0 h114 m-144 0 h20 m124 0 h20 m-164 0 q10 0 10 10 m144 0 q0 -10 10 -10 m-154 10 v12 m144 0 v-12 m-144 12 q0 10 10 10 m124 0 q10 0 10 -10 m-134 10 h10 m60 0 h10 m0 0 h10 m24 0 h10 m20 -32 h10 m92 0 h10 m-286 -10 v20 m296 0 v-20 m-296 20 v56 m296 0 v-56 m-296 56 q0 10 10 10 m276 0 q10 0 10 -10 m-286 10 h10 m26 0 h10 m0 0 h10 m90 0 h10 m0 0 h10 m26 0 h10 m0 0 h74 m23 -340 h-3"/>
   <polygon points="345 17 353 13 353 21"/>
   <polygon points="345 17 337 13 337 21"/>
</svg>
