<?xml version="1.0" encoding="UTF-8"?>
<svg xmlns="http://www.w3.org/2000/svg" width="203" height="115">
   <defs>
      <style type="text/css">
    @namespace "http://www.w3.org/2000/svg";
    .line                 {fill: none; stroke: #332900; stroke-width: 1;}
    .bold-line            {stroke: #141000; shape-rendering: crispEdges; stroke-width: 2;}
    .thin-line            {stroke: #1F1800; shape-rendering: crispEdges}
    .filled               {fill: #332900; stroke: none;}
    text.terminal         {font-family: Verdana, Sans-serif;
                            font-size: 12px;
                            fill: #141000;
                            font-weight: bold;
                          }
    text.nonterminal      {font-family: Verdana, Sans-serif;
                            font-size: 12px;
                            fill: #1A1400;
                            font-weight: normal;
                          }
    text.regexp           {font-family: Verdana, Sans-serif;
                            font-size: 12px;
                            fill: #1F1800;
                            font-weight: normal;
                          }
    rect, circle, polygon {fill: #332900; stroke: #332900;}
    rect.terminal         {fill: #FFDB4D; stroke: #332900; stroke-width: 1;}
    rect.nonterminal      {fill: #FFEC9E; stroke: #332900; stroke-width: 1;}
    rect.text             {fill: none; stroke: none;}
    polygon.regexp        {fill: #FFF4C7; stroke: #332900; stroke-width: 1;}
  </style>
   </defs>
   <polygon points="9 95 1 91 1 99"/>
   <polygon points="17 95 9 91 9 99"/>
   <a xmlns:xlink="http://www.w3.org/1999/xlink"
       xlink:href="#NOT"
       xlink:title="NOT">
      <rect x="51" y="47" width="44" height="32"/>
      <rect x="49" y="45" width="44" height="32" class="nonterminal"/>
      <text class="nonterminal" x="59" y="65">NOT</text>
   </a>
   <a xmlns:xlink="http://www.w3.org/1999/xlink"
       xlink:href="#SUB"
       xlink:title="SUB">
      <rect x="51" y="3" width="44" height="32"/>
      <rect x="49" y="1" width="44" height="32" class="nonterminal"/>
      <text class="nonterminal" x="59" y="21">SUB</text>
   </a>
   <a xmlns:xlink="http://www.w3.org/1999/xlink"
       xlink:href="#call"
       xlink:title="call">
      <rect x="135" y="81" width="40" height="32"/>
      <rect x="133" y="79" width="40" height="32" class="nonterminal"/>
      <text class="nonterminal" x="143" y="99">call</text>
   </a>
   <path class="line"
          d="m17 95 h2 m20 0 h10 m0 0 h54 m-84 0 l20 0 m-1 0 q-9 0 -9 -10 l0 -14 q0 -10 10 -10 m64 34 l20 0 m-20 0 q10 0 10 -10 l0 -14 q0 -10 -10 -10 m-64 0 h10 m44 0 h10 m-74 10 l0 -44 q0 -10 10 -10 m74 54 l0 -44 q0 -10 -10 -10 m-64 0 h10 m44 0 h10 m20 78 h10 m40 0 h10 m3 0 h-3"/>
   <polygon points="193 95 201 91 201 99"/>
   <polygon points="193 95 185 91 185 99"/>
</svg>
