<?xml version="1.0" encoding="UTF-8"?>
<svg xmlns="http://www.w3.org/2000/svg" width="429" height="37">
   <defs>
      <style type="text/css">
    @namespace "http://www.w3.org/2000/svg";
    .line                 {fill: none; stroke: #332900; stroke-width: 1;}
    .bold-line            {stroke: #141000; shape-rendering: crispEdges; stroke-width: 2;}
    .thin-line            {stroke: #1F1800; shape-rendering: crispEdges}
    .filled               {fill: #332900; stroke: none;}
    text.terminal         {font-family: Verdana, Sans-serif;
                            font-size: 12px;
                            fill: #141000;
                            font-weight: bold;
                          }
    text.nonterminal      {font-family: Verdana, Sans-serif;
                            font-size: 12px;
                            fill: #1A1400;
                            font-weight: normal;
                          }
    text.regexp           {font-family: Verdana, Sans-serif;
                            font-size: 12px;
                            fill: #1F1800;
                            font-weight: normal;
                          }
    rect, circle, polygon {fill: #332900; stroke: #332900;}
    rect.terminal         {fill: #FFDB4D; stroke: #332900; stroke-width: 1;}
    rect.nonterminal      {fill: #FFEC9E; stroke: #332900; stroke-width: 1;}
    rect.text             {fill: none; stroke: none;}
    polygon.regexp        {fill: #FFF4C7; stroke: #332900; stroke-width: 1;}
  </style>
   </defs>
   <polygon points="9 17 1 13 1 21"/>
   <polygon points="17 17 9 13 9 21"/>
   <a xmlns:xlink="http://www.w3.org/1999/xlink"
       xlink:href="#WHILE"
       xlink:title="WHILE">
      <rect x="31" y="3" width="62" height="32"/>
      <rect x="29" y="1" width="62" height="32" class="nonterminal"/>
      <text class="nonterminal" x="39" y="21">WHILE</text>
   </a>
   <rect x="113" y="3" width="26" height="32" rx="10"/>
   <rect x="111"
          y="1"
          width="26"
          height="32"
          class="terminal"
          rx="10"/>
   <text class="terminal" x="121" y="21">(</text>
   <a xmlns:xlink="http://www.w3.org/1999/xlink"
       xlink:href="#expression"
       xlink:title="expression">
      <rect x="159" y="3" width="90" height="32"/>
      <rect x="157" y="1" width="90" height="32" class="nonterminal"/>
      <text class="nonterminal" x="167" y="21">expression</text>
   </a>
   <rect x="269" y="3" width="26" height="32" rx="10"/>
   <rect x="267"
          y="1"
          width="26"
          height="32"
          class="terminal"
          rx="10"/>
   <text class="terminal" x="277" y="21">)</text>
   <a xmlns:xlink="http://www.w3.org/1999/xlink"
       xlink:href="#statement"
       xlink:title="statement">
      <rect x="315" y="3" width="86" height="32"/>
      <rect x="313" y="1" width="86" height="32" class="nonterminal"/>
      <text class="nonterminal" x="323" y="21">statement</text>
   </a>
   <path class="line"
          d="m17 17 h2 m0 0 h10 m62 0 h10 m0 0 h10 m26 0 h10 m0 0 h10 m90 0 h10 m0 0 h10 m26 0 h10 m0 0 h10 m86 0 h10 m3 0 h-3"/>
   <polygon points="419 17 427 13 427 21"/>
   <polygon points="419 17 411 13 411 21"/>
</svg>
